<svg version="1.1" xmlns="http://www.w3.org/2000/svg" viewBox="0 0 128 108">
	<path class="st0" d="M50.2,107.3c0.7,0.1,1.4,0.2,2.1,0.2c10.9-4.9,20.2-12.9,26.6-23.3c6.3-10.1,9.3-21.5,9.1-33.1L76.1,39.2
			C81,64.4,71.4,91.1,50.2,107.3z" />
	<path class="st0" d="M46,106.7c0.1,0,0.2,0,0.3,0.1C69,90.6,78.8,62.2,72.4,36.2l-17-17C69,47,66.3,81.2,46,106.7z" />
	<path class="st0"
		d="M103.6,65.1c-2.9,13-9.8,24.7-20,33.5c-3,2.6-6.2,4.9-9.5,6.8c16.7-4.9,30.2-17.4,36.4-33.5L103.6,65.1z" />
	<path class="st0" d="M100.9,63.2l-9.8-9.8c-0.2,11.2-3.3,22.2-9.4,32c-5.9,9.6-14.1,17.2-23.8,22.3c0,0,0,0,0,0h0
			c2.2,0,4.4-0.1,6.6-0.4C82.9,99.8,96.9,83.4,100.9,63.2z" />
	<path class="st0"
		d="M47.4,12L35.7,0.3C14.9,8.3,0,28.6,0,52.1v0c0,26,18.1,47.9,42.2,53.9C64.8,78.7,66,40.5,47.4,12z" />
	<path class="st0" d="M128,61.4c0-30.6-25-55.6-55.6-55.6h0c-7,0-13.7,1.3-19.9,3.7l71.7,71.7C126.7,75.1,128,68.4,128,61.4
			L128,61.4z" />

	<style>
		path {
			fill: #000;
		}

		@media (prefers-color-scheme: dark) {
			path {
				fill: #FFF;
			}
		}
	</style>
</svg>