<svg xmlns="http://www.w3.org/2000/svg" viewBox="0 0 219.83 184.45">
  <path
    d="m86.24,183.71c1.21.15,2.42.28,3.64.38,18.8-8.35,34.68-22.1,45.76-39.96,10.74-17.31,16.04-36.95,15.57-56.86l-20.51-20.51c8.33,43.29-8.02,89.12-44.47,116.95Z" />
  <path
    d="m78.92,182.76c.19.04.37.07.56.11,39.09-27.86,55.85-76.48,44.79-121.2l-29.2-29.2c23.46,47.7,18.72,106.54-16.14,150.29Z" />
  <path
    d="m177.98,111.35c-4.94,22.29-16.82,42.34-34.36,57.6-5.13,4.46-10.6,8.37-16.33,11.73,28.67-8.35,51.87-29.85,62.55-57.47l-11.86-11.86Z" />
  <path
    d="m173.34,108.05l-16.86-16.86c-.26,19.28-5.75,38.19-16.18,54.99-10.19,16.42-24.28,29.48-40.93,38.28.03,0,.05,0,.08,0h0c3.83,0,7.61-.23,11.33-.68,31.56-12.89,55.69-40.98,62.56-75.73Z" />
  <path
    d="m81.41,20.16L61.25,0C25.52,13.81,0,48.59,0,89.05h0c0,44.6,31.02,82.3,72.55,92.62,38.7-46.96,40.77-112.7,8.86-161.51Z" />
  <path
    d="m219.83,104.95c0-52.47-42.93-95.41-95.41-95.41h0c-12.02,0-23.54,2.26-34.16,6.36l123.2,123.2c4.1-10.62,6.36-22.14,6.36-34.16h0Z" />

  <style>
    path {
      fill: #000;
    }

    @media (prefers-color-scheme: dark) {
      path {
        fill: #FFF;
      }
    }
  </style>
</svg>